<?xml version="1.0" standalone="no"?>
<!DOCTYPE svg PUBLIC "-//W3C//DTD SVG 20010904//EN"
 "http://www.w3.org/TR/2001/REC-SVG-20010904/DTD/svg10.dtd">
<svg version="1.0" xmlns="http://www.w3.org/2000/svg"
 width="1280.000000pt" height="473.000000pt" viewBox="0 0 1280.000000 473.000000"
 preserveAspectRatio="xMidYMid meet">
<metadata>
Created by potrace 1.15, written by Peter Selinger 2001-2017
</metadata>
<g transform="translate(0.000000,473.000000) scale(0.100000,-0.100000)"
fill="#000000" stroke="none">
<path d="M11068 3788 l-3 -693 -445 -2 -445 -3 -33 59 c-49 91 -120 173 -270
314 -197 186 -234 238 -256 372 -12 68 -13 70 -44 73 l-32 3 -2 -408 -3 -408
-581 -3 -581 -2 -99 102 c-123 127 -137 154 -170 326 -4 19 -10 23 -37 20
l-32 -3 -3 -222 -2 -223 -640 0 -639 0 -20 28 c-57 81 -113 225 -141 365 -11
54 -13 57 -41 57 l-29 0 -2 -222 -3 -223 -725 0 -725 0 -3 223 -2 222 -30 0
-30 0 0 -225 0 -225 -725 0 -725 0 0 225 0 225 -30 0 -30 0 -2 -222 -3 -223
-1617 -3 -1618 -2 0 -25 0 -25 1620 0 1620 0 0 -325 0 -325 -1620 0 -1620 0 0
-25 0 -25 1618 -2 1617 -3 3 -322 2 -323 -1620 0 -1620 0 0 -30 0 -30 573 -1
c314 -1 561 -4 547 -6 -71 -12 -181 -48 -226 -74 -66 -37 -130 -106 -143 -155
-54 -194 81 -341 361 -393 l103 -19 -607 -1 -608 -1 0 -25 0 -25 6148 2 6147
3 3 23 3 22 -938 1 c-932 1 -938 1 -867 19 161 42 293 138 350 257 27 55 28
67 32 216 l4 157 269 0 c148 0 269 -1 269 -3 0 -1 -11 -36 -25 -77 -30 -92
-30 -90 -1 -90 22 0 29 10 57 85 l32 85 406 2 406 3 0 25 0 25 -399 3 -398 2
6 24 c38 150 31 347 -14 436 -18 35 -18 38 2 101 12 35 23 70 24 77 3 9 90 12
394 12 l390 0 0 25 0 25 -389 0 -388 0 -6 75 c-4 41 -15 101 -26 133 -19 57
-19 58 0 127 20 70 28 250 14 295 -6 20 -2 20 394 20 l401 0 0 25 0 25 -405 0
c-469 0 -434 -9 -414 105 6 38 9 126 7 208 -8 250 -49 325 -343 627 -211 217
-239 257 -257 374 -12 73 -13 76 -40 76 l-28 0 -2 -692z m369 14 c58 -48 157
-170 189 -234 36 -70 64 -189 64 -268 0 -37 -3 -70 -7 -73 -3 -4 -20 17 -36
46 -48 84 -81 122 -263 302 -197 195 -232 249 -242 371 l-5 67 128 -87 c70
-48 147 -104 172 -124z m-233 -307 c91 -54 175 -117 248 -184 69 -64 168 -186
168 -208 0 -10 -29 -13 -114 -13 l-114 0 -93 98 c-107 111 -143 175 -157 275
-5 37 -6 67 -2 67 3 0 32 -16 64 -35z m-1445 -158 c110 -78 271 -220 271 -238
0 -5 -52 -9 -116 -9 l-115 0 -35 38 c-97 101 -131 163 -148 271 -8 44 -1 41
143 -62z m-4759 -622 l0 -325 -725 0 -725 0 0 325 0 325 725 0 725 0 0 -325z
m1520 0 l0 -325 -730 0 -730 0 0 325 0 325 730 0 730 0 0 -325z m1510 0 l0
-325 -413 0 -414 0 -12 56 c-29 130 -137 299 -322 505 -38 42 -69 79 -69 83 0
3 277 6 615 6 l615 0 0 -325z m192 281 c110 -67 230 -167 293 -243 64 -77 128
-202 144 -281 17 -84 18 -82 -48 -82 l-59 0 -132 138 c-218 226 -278 320 -295
455 -9 72 -2 73 97 13z m1318 -281 l0 -325 -404 0 -403 0 -6 93 c-6 93 -26
166 -67 247 -36 70 -113 181 -169 242 -28 31 -51 59 -51 62 0 3 248 6 550 6
l550 0 0 -325z m575 253 c39 -82 64 -215 49 -262 -9 -26 -10 -25 -48 41 -24
42 -81 111 -149 181 l-110 112 111 0 111 0 36 -72z m955 -253 l0 -325 -420 0
-420 0 0 33 c0 17 -6 55 -14 84 -12 44 -12 61 1 120 18 83 13 282 -9 361 l-15
52 438 0 439 0 0 -325z m164 294 c87 -54 209 -154 283 -232 99 -106 173 -258
173 -354 l0 -33 -51 0 -51 0 -152 153 c-200 201 -278 318 -301 455 -7 41 -6
42 21 42 15 0 50 -14 78 -31z m435 -1 c19 -53 32 -169 25 -216 l-6 -43 -41 67
c-22 37 -74 103 -115 146 l-75 78 101 0 100 0 11 -32z m-1914 -104 c189 -124
319 -269 374 -417 33 -90 31 -97 -31 -97 l-53 0 -151 148 c-88 85 -171 176
-198 217 -43 65 -86 172 -86 216 0 19 1 19 33 3 17 -9 68 -41 112 -70z m-3039
-85 c55 -21 149 -82 202 -133 62 -58 154 -200 176 -273 l7 -23 -260 0 -261 0
0 231 0 231 43 -7 c23 -4 65 -16 93 -26z m3047 -376 c37 -25 67 -47 67 -49 0
-2 -49 -4 -110 -4 l-110 0 0 75 0 75 43 -26 c23 -15 72 -47 110 -71z m1468 15
l90 -63 -82 -3 c-45 -2 -88 -1 -95 2 -8 3 -12 26 -11 65 0 34 2 61 4 61 1 0
44 -28 94 -62z m-3025 1 c44 -28 83 -55 89 -60 5 -5 -33 -9 -93 -9 l-102 0 0
60 c0 44 4 60 14 60 7 0 49 -23 92 -51z m-3206 -444 l0 -325 -725 0 -725 0 0
325 0 325 725 0 725 0 0 -325z m1518 -2 l2 -323 -730 0 -730 0 0 325 0 325
728 -2 727 -3 3 -322z m608 280 c10 -67 -2 -208 -24 -283 -18 -59 -81 -224
-113 -292 l-12 -28 -199 0 -198 0 0 325 0 325 269 0 270 0 7 -47z m904 -278
l0 -325 -499 0 -498 0 43 88 c91 183 134 336 134 478 l0 84 410 0 410 0 0
-325z m435 280 c181 -129 266 -316 236 -520 l-13 -85 -294 0 -294 0 0 318 c0
175 3 322 7 325 3 4 71 7 151 7 l144 0 63 -45z m205 10 c0 -43 -10 -44 -38 -5
-28 38 -28 40 8 40 28 0 30 -3 30 -35z m870 -290 l0 -325 -400 0 -400 0 7 43
c5 23 8 105 7 182 0 129 -2 145 -27 206 -25 61 -26 71 -16 120 6 30 13 64 15
77 l4 22 405 0 405 0 0 -325z m427 283 c185 -142 263 -311 235 -510 -7 -44
-14 -84 -17 -89 -4 -5 -128 -9 -293 -9 l-287 0 2 322 c2 178 3 324 3 326 0 1
68 2 152 2 l151 0 54 -42z m193 1 l0 -42 -22 29 c-12 16 -26 35 -31 42 -7 9
-2 12 22 12 30 0 31 -2 31 -41z m908 -286 l2 -323 -416 0 c-381 0 -416 1 -410
16 4 9 11 60 17 114 14 115 0 240 -32 307 -18 38 -19 49 -10 93 6 28 11 67 11
86 l0 34 418 -2 417 -3 3 -322z m438 269 c98 -64 141 -109 182 -192 24 -49 27
-66 27 -160 0 -58 -6 -135 -14 -172 l-13 -68 -279 0 -279 0 0 318 c0 175 3
322 7 325 3 4 68 7 142 7 l137 0 90 -58z m184 23 c0 -54 -12 -47 -48 28 -2 4
8 7 22 7 23 0 26 -4 26 -35z m-3739 -675 l79 0 0 -29 0 -28 -47 23 c-37 19
-62 24 -128 24 -142 0 -272 -56 -381 -165 -97 -96 -139 -205 -120 -309 12 -65
76 -121 170 -151 34 -11 -77 -13 -679 -13 l-720 0 73 19 c165 42 294 137 350
256 25 54 27 69 30 215 l4 157 626 1 c344 0 628 2 631 5 3 3 11 3 19 0 7 -3
49 -5 93 -5z m1507 0 l82 0 0 -30 0 -30 -42 22 c-32 16 -66 23 -133 26 -78 4
-101 1 -168 -22 -209 -70 -347 -223 -347 -385 0 -116 55 -182 180 -217 37 -10
-82 -12 -670 -12 l-715 0 75 19 c41 10 104 33 139 50 77 38 178 135 212 204
22 46 24 64 27 213 l3 162 284 0 284 0 -26 -62 c-14 -35 -32 -75 -39 -90 -14
-27 -13 -28 10 -28 27 0 59 47 91 132 l18 48 306 3 c168 1 315 1 326 0 11 -2
57 -3 103 -3z m1533 0 c72 0 79 -2 79 -20 0 -24 -3 -24 -55 -5 -55 19 -194 19
-263 -1 -102 -30 -192 -82 -265 -154 -76 -77 -107 -135 -114 -220 -11 -123 46
-199 177 -236 37 -10 -83 -12 -680 -12 l-725 0 73 19 c131 33 245 104 312 193
63 83 73 120 74 288 l1 148 278 0 c215 0 277 -3 277 -12 0 -7 -14 -44 -30 -83
-35 -82 -36 -85 -11 -85 21 0 57 55 86 132 l18 48 331 2 c182 2 337 2 344 1 8
-2 49 -3 93 -3z m-7893 -24 c-127 -52 -229 -142 -275 -243 -21 -46 -25 -70
-25 -138 1 -107 17 -160 64 -207 l38 -38 -662 1 c-464 1 -646 5 -608 11 232
41 371 132 400 261 37 166 -93 308 -330 358 -85 18 -82 18 685 18 l770 1 -57
-24z m392 9 c0 -18 -8 -18 -40 0 l-25 14 33 1 c22 0 32 -5 32 -15z m1250 8
c-249 -42 -475 -284 -430 -460 21 -84 68 -132 163 -164 51 -17 36 -18 -600
-18 -359 -1 -653 1 -653 3 0 2 30 18 67 36 81 40 199 153 234 225 22 46 24 64
27 218 l3 167 607 -1 c334 -1 596 -4 582 -6z m260 -23 l0 -30 -42 22 c-24 12
-59 25 -78 29 -27 5 -16 7 43 8 l77 1 0 -30z m1225 20 c-157 -32 -309 -140
-370 -265 -40 -81 -45 -183 -13 -245 27 -53 85 -96 154 -115 42 -11 -47 -13
-671 -13 l-720 0 73 18 c156 41 288 136 348 250 28 53 29 61 32 218 l4 162
601 -1 c331 -1 584 -5 562 -9z m295 -15 c0 -29 -2 -30 -41 -9 -17 8 -49 19
-72 24 -38 7 -34 8 36 9 76 1 77 1 77 -24z m-4968 -51 c38 -20 96 -82 120
-128 29 -57 50 -172 43 -231 -15 -109 -55 -149 -150 -149 -95 0 -183 72 -227
183 -29 75 -32 229 -5 279 36 66 139 87 219 46z m1906 -26 c17 -15 15 -73 -4
-111 -22 -42 -145 -169 -211 -218 -98 -73 -227 -129 -296 -129 -146 0 -72 170
139 321 181 130 317 180 372 137z"/>
<path d="M250 255 l0 -25 6150 0 6150 0 0 25 0 25 -6150 0 -6150 0 0 -25z"/>
</g>
</svg>
